<svg width="1130" height="1800" viewBox="0 0 1130 1800" fill="none" xmlns="http://www.w3.org/2000/svg">
<g opacity="0.0526316">
<rect x="58.5891" y="1538.19" width="934.843" height="934.843" transform="rotate(-120 58.5891 1538.19)" fill="black" fill-opacity="0.3" stroke="url(#paint0_linear_50_516)" stroke-width="2.5"/>
<rect x="-186.323" y="1413.39" width="934.843" height="934.843" transform="rotate(-96 -186.323 1413.39)" fill="black" fill-opacity="0.3" stroke="url(#paint1_linear_50_516)" stroke-width="2.5"/>
<rect x="-359.306" y="1199.78" width="934.843" height="934.843" transform="rotate(-72 -359.306 1199.78)" fill="black" fill-opacity="0.3" stroke="url(#paint2_linear_50_516)" stroke-width="2.5"/>
</g>
<g opacity="0.105263">
<rect x="-171.777" y="1395.43" width="902.147" height="902.147" transform="rotate(-96 -171.777 1395.43)" fill="black" fill-opacity="0.3" stroke="url(#paint3_linear_50_516)" stroke-width="2.5"/>
<rect x="-338.708" y="1189.28" width="902.147" height="902.147" transform="rotate(-72 -338.708 1189.28)" fill="black" fill-opacity="0.3" stroke="url(#paint4_linear_50_516)" stroke-width="2.5"/>
<rect x="-407.362" y="933.062" width="902.147" height="902.147" transform="rotate(-48 -407.362 933.062)" fill="black" fill-opacity="0.3" stroke="url(#paint5_linear_50_516)" stroke-width="2.5"/>
</g>
<g opacity="0.157895">
<rect x="-318.11" y="1178.79" width="869.451" height="869.451" transform="rotate(-72 -318.11 1178.79)" fill="black" fill-opacity="0.3" stroke="url(#paint6_linear_50_516)" stroke-width="2.5"/>
<rect x="-384.272" y="931.853" width="869.451" height="869.451" transform="rotate(-48 -384.272 931.853)" fill="black" fill-opacity="0.3" stroke="url(#paint7_linear_50_516)" stroke-width="2.5"/>
<rect x="-344.281" y="679.355" width="869.451" height="869.451" transform="rotate(-24 -344.281 679.355)" fill="black" fill-opacity="0.3" stroke="url(#paint8_linear_50_516)" stroke-width="2.5"/>
</g>
<g opacity="0.210526">
<rect x="-361.188" y="930.642" width="836.755" height="836.755" transform="rotate(-48 -361.188 930.642)" fill="black" fill-opacity="0.3" stroke="url(#paint9_linear_50_516)" stroke-width="2.5"/>
<rect x="-322.698" y="687.639" width="836.755" height="836.755" transform="rotate(-24 -322.698 687.639)" fill="black" fill-opacity="0.3" stroke="url(#paint10_linear_50_516)" stroke-width="2.5"/>
<rect x="-188.7" y="481.3" width="836.755" height="836.755" fill="black" fill-opacity="0.3" stroke="url(#paint11_linear_50_516)" stroke-width="2.5"/>
</g>
<g opacity="0.263158">
<rect x="-301.116" y="695.923" width="804.059" height="804.059" transform="rotate(-24 -301.116 695.923)" fill="black" fill-opacity="0.3" stroke="url(#paint12_linear_50_516)" stroke-width="2.5"/>
<rect x="-172.353" y="497.649" width="804.059" height="804.059" fill="black" fill-opacity="0.3" stroke="url(#paint13_linear_50_516)" stroke-width="2.5"/>
<rect x="25.9238" y="368.886" width="804.059" height="804.059" transform="rotate(24 25.9238 368.886)" fill="black" fill-opacity="0.3" stroke="url(#paint14_linear_50_516)" stroke-width="2.5"/>
</g>
<g opacity="0.315789">
<rect x="-156.005" y="513.993" width="771.363" height="771.363" fill="black" fill-opacity="0.3" stroke="url(#paint15_linear_50_516)" stroke-width="2.5"/>
<rect x="34.2104" y="390.469" width="771.363" height="771.363" transform="rotate(24 34.2104 390.469)" fill="black" fill-opacity="0.3" stroke="url(#paint16_linear_50_516)" stroke-width="2.5"/>
<rect x="258.222" y="354.988" width="771.363" height="771.363" transform="rotate(48 258.222 354.988)" fill="black" fill-opacity="0.3" stroke="url(#paint17_linear_50_516)" stroke-width="2.5"/>
</g>
<g opacity="0.368421">
<rect x="42.4946" y="412.052" width="738.668" height="738.668" transform="rotate(24 42.4946 412.052)" fill="black" fill-opacity="0.3" stroke="url(#paint18_linear_50_516)" stroke-width="2.5"/>
<rect x="257.012" y="378.077" width="738.668" height="738.668" transform="rotate(48 257.012 378.077)" fill="black" fill-opacity="0.3" stroke="url(#paint19_linear_50_516)" stroke-width="2.5"/>
<rect x="466.802" y="434.29" width="738.668" height="738.668" transform="rotate(72 466.802 434.29)" fill="black" fill-opacity="0.3" stroke="url(#paint20_linear_50_516)" stroke-width="2.5"/>
</g>
<g opacity="0.421053">
<rect x="255.802" y="401.163" width="705.972" height="705.972" transform="rotate(48 255.802 401.163)" fill="black" fill-opacity="0.3" stroke="url(#paint21_linear_50_516)" stroke-width="2.5"/>
<rect x="456.307" y="454.89" width="705.972" height="705.972" transform="rotate(72 456.307 454.89)" fill="black" fill-opacity="0.3" stroke="url(#paint22_linear_50_516)" stroke-width="2.5"/>
<rect x="617.624" y="585.522" width="705.972" height="705.972" transform="rotate(96 617.624 585.522)" fill="black" fill-opacity="0.3" stroke="url(#paint23_linear_50_516)" stroke-width="2.5"/>
</g>
<g opacity="0.473684">
<rect x="445.812" y="475.488" width="673.276" height="673.276" transform="rotate(72 445.812 475.488)" fill="black" fill-opacity="0.3" stroke="url(#paint24_linear_50_516)" stroke-width="2.5"/>
<rect x="599.657" y="600.072" width="673.276" height="673.276" transform="rotate(96 599.657 600.072)" fill="black" fill-opacity="0.3" stroke="url(#paint25_linear_50_516)" stroke-width="2.5"/>
<rect x="689.531" y="776.459" width="673.276" height="673.276" transform="rotate(120 689.531 776.459)" fill="black" fill-opacity="0.3" stroke="url(#paint26_linear_50_516)" stroke-width="2.5"/>
</g>
<g opacity="0.526316">
<rect x="581.693" y="614.62" width="640.58" height="640.58" transform="rotate(96 581.693 614.62)" fill="black" fill-opacity="0.3" stroke="url(#paint27_linear_50_516)" stroke-width="2.5"/>
<rect x="667.201" y="782.442" width="640.58" height="640.58" transform="rotate(120 667.201 782.442)" fill="black" fill-opacity="0.3" stroke="url(#paint28_linear_50_516)" stroke-width="2.5"/>
<rect x="677.059" y="970.534" width="640.58" height="640.58" transform="rotate(144 677.059 970.534)" fill="black" fill-opacity="0.3" stroke="url(#paint29_linear_50_516)" stroke-width="2.5"/>
</g>
<g opacity="0.578947">
<rect x="644.869" y="788.427" width="607.884" height="607.884" transform="rotate(120 644.869 788.427)" fill="black" fill-opacity="0.3" stroke="url(#paint30_linear_50_516)" stroke-width="2.5"/>
<rect x="654.221" y="966.918" width="607.884" height="607.884" transform="rotate(144 654.221 966.918)" fill="black" fill-opacity="0.3" stroke="url(#paint31_linear_50_516)" stroke-width="2.5"/>
<rect x="590.168" y="1133.78" width="607.884" height="607.884" transform="rotate(168 590.168 1133.78)" fill="black" fill-opacity="0.3" stroke="url(#paint32_linear_50_516)" stroke-width="2.5"/>
</g>
<g opacity="0.631579">
<rect x="631.39" y="963.302" width="575.188" height="575.188" transform="rotate(144 631.39 963.302)" fill="black" fill-opacity="0.3" stroke="url(#paint33_linear_50_516)" stroke-width="2.5"/>
<rect x="570.78" y="1121.19" width="575.188" height="575.188" transform="rotate(168 570.78 1121.19)" fill="black" fill-opacity="0.3" stroke="url(#paint34_linear_50_516)" stroke-width="2.5"/>
<rect x="451.192" y="1240.78" width="575.188" height="575.188" transform="rotate(-168 451.192 1240.78)" fill="black" fill-opacity="0.3" stroke="url(#paint35_linear_50_516)" stroke-width="2.5"/>
</g>
<g opacity="0.684211">
<rect x="551.391" y="1108.6" width="542.492" height="542.492" transform="rotate(168 551.391 1108.6)" fill="black" fill-opacity="0.3" stroke="url(#paint36_linear_50_516)" stroke-width="2.5"/>
<rect x="438.6" y="1221.39" width="542.492" height="542.492" transform="rotate(-168 438.6 1221.39)" fill="black" fill-opacity="0.3" stroke="url(#paint37_linear_50_516)" stroke-width="2.5"/>
<rect x="289.685" y="1278.55" width="542.492" height="542.492" transform="rotate(-144 289.685 1278.55)" fill="black" fill-opacity="0.3" stroke="url(#paint38_linear_50_516)" stroke-width="2.5"/>
</g>
<g opacity="0.736842">
<rect x="426.01" y="1202" width="509.796" height="509.796" transform="rotate(-168 426.01 1202)" fill="black" fill-opacity="0.3" stroke="url(#paint39_linear_50_516)" stroke-width="2.5"/>
<rect x="286.07" y="1255.72" width="509.796" height="509.796" transform="rotate(-144 286.07 1255.72)" fill="black" fill-opacity="0.3" stroke="url(#paint40_linear_50_516)" stroke-width="2.5"/>
<rect x="136.379" y="1247.87" width="509.796" height="509.796" transform="rotate(-120 136.379 1247.87)" fill="black" fill-opacity="0.3" stroke="url(#paint41_linear_50_516)" stroke-width="2.5"/>
</g>
<g opacity="0.789474">
<rect x="282.451" y="1232.88" width="477.101" height="477.101" transform="rotate(-144 282.451 1232.88)" fill="black" fill-opacity="0.3" stroke="url(#paint42_linear_50_516)" stroke-width="2.5"/>
<rect x="142.361" y="1225.54" width="477.1" height="477.1" transform="rotate(-120 142.361 1225.54)" fill="black" fill-opacity="0.3" stroke="url(#paint43_linear_50_516)" stroke-width="2.5"/>
<rect x="17.3687" y="1161.85" width="477.1" height="477.1" transform="rotate(-96 17.3687 1161.85)" fill="black" fill-opacity="0.3" stroke="url(#paint44_linear_50_516)" stroke-width="2.5"/>
</g>
<g opacity="0.842105">
<rect x="148.344" y="1203.21" width="444.405" height="444.405" transform="rotate(-120 148.344 1203.21)" fill="black" fill-opacity="0.3" stroke="url(#paint45_linear_50_516)" stroke-width="2.5"/>
<rect x="31.9185" y="1143.89" width="444.405" height="444.405" transform="rotate(-96 31.9185 1143.89)" fill="black" fill-opacity="0.3" stroke="url(#paint46_linear_50_516)" stroke-width="2.5"/>
<rect x="-50.3137" y="1042.34" width="444.405" height="444.405" transform="rotate(-72 -50.3137 1042.34)" fill="black" fill-opacity="0.3" stroke="url(#paint47_linear_50_516)" stroke-width="2.5"/>
</g>
<g opacity="0.894737">
<rect x="46.468" y="1125.92" width="411.709" height="411.709" transform="rotate(-96 46.468 1125.92)" fill="black" fill-opacity="0.3" stroke="url(#paint48_linear_50_516)" stroke-width="2.5"/>
<rect x="-29.7134" y="1031.84" width="411.709" height="411.709" transform="rotate(-72 -29.7134 1031.84)" fill="black" fill-opacity="0.3" stroke="url(#paint49_linear_50_516)" stroke-width="2.5"/>
<rect x="-61.0452" y="914.913" width="411.709" height="411.709" transform="rotate(-48 -61.0452 914.913)" fill="black" fill-opacity="0.3" stroke="url(#paint50_linear_50_516)" stroke-width="2.5"/>
</g>
<g opacity="0.947368">
<rect x="-9.11523" y="1021.35" width="379.013" height="379.013" transform="rotate(-72 -9.11523 1021.35)" fill="black" fill-opacity="0.3" stroke="url(#paint51_linear_50_516)" stroke-width="2.5"/>
<rect x="-37.9575" y="913.702" width="379.013" height="379.013" transform="rotate(-48 -37.9575 913.702)" fill="black" fill-opacity="0.3" stroke="url(#paint52_linear_50_516)" stroke-width="2.5"/>
<rect x="-20.5244" y="803.632" width="379.013" height="379.013" transform="rotate(-24 -20.5244 803.632)" fill="black" fill-opacity="0.3" stroke="url(#paint53_linear_50_516)" stroke-width="2.5"/>
</g>
<rect x="-14.8713" y="912.492" width="346.317" height="346.317" transform="rotate(-48 -14.8713 912.492)" fill="black" fill-opacity="0.3" stroke="url(#paint54_linear_50_516)" stroke-width="2.5"/>
<rect x="1.05908" y="811.918" width="346.317" height="346.317" transform="rotate(-24 1.05908 811.918)" fill="black" fill-opacity="0.3" stroke="url(#paint55_linear_50_516)" stroke-width="2.5"/>
<rect x="56.5181" y="726.518" width="346.317" height="346.317" fill="black" fill-opacity="0.3" stroke="url(#paint56_linear_50_516)" stroke-width="2.5"/>
<defs>
<linearGradient id="paint0_linear_50_516" x1="58.5891" y1="2005.61" x2="993.432" y2="2005.61" gradientUnits="userSpaceOnUse">
<stop stop-color="#FFF2CC"/>
<stop offset="1" stop-color="#CC4125"/>
</linearGradient>
<linearGradient id="paint1_linear_50_516" x1="-186.323" y1="1880.82" x2="748.52" y2="1880.82" gradientUnits="userSpaceOnUse">
<stop stop-color="#FFF2CC"/>
<stop offset="1" stop-color="#CC4125"/>
</linearGradient>
<linearGradient id="paint2_linear_50_516" x1="-359.306" y1="1667.2" x2="575.537" y2="1667.2" gradientUnits="userSpaceOnUse">
<stop stop-color="#FFF2CC"/>
<stop offset="1" stop-color="#CC4125"/>
</linearGradient>
<linearGradient id="paint3_linear_50_516" x1="-171.777" y1="1846.5" x2="730.37" y2="1846.5" gradientUnits="userSpaceOnUse">
<stop stop-color="#FFF2CC"/>
<stop offset="1" stop-color="#CC4125"/>
</linearGradient>
<linearGradient id="paint4_linear_50_516" x1="-338.708" y1="1640.36" x2="563.439" y2="1640.36" gradientUnits="userSpaceOnUse">
<stop stop-color="#FFF2CC"/>
<stop offset="1" stop-color="#CC4125"/>
</linearGradient>
<linearGradient id="paint5_linear_50_516" x1="-407.362" y1="1384.14" x2="494.785" y2="1384.14" gradientUnits="userSpaceOnUse">
<stop stop-color="#FFF2CC"/>
<stop offset="1" stop-color="#CC4125"/>
</linearGradient>
<linearGradient id="paint6_linear_50_516" x1="-318.11" y1="1613.51" x2="551.342" y2="1613.51" gradientUnits="userSpaceOnUse">
<stop stop-color="#FFF2CC"/>
<stop offset="1" stop-color="#CC4125"/>
</linearGradient>
<linearGradient id="paint7_linear_50_516" x1="-384.272" y1="1366.58" x2="485.179" y2="1366.58" gradientUnits="userSpaceOnUse">
<stop stop-color="#FFF2CC"/>
<stop offset="1" stop-color="#CC4125"/>
</linearGradient>
<linearGradient id="paint8_linear_50_516" x1="-344.281" y1="1114.08" x2="525.17" y2="1114.08" gradientUnits="userSpaceOnUse">
<stop stop-color="#FFF2CC"/>
<stop offset="1" stop-color="#CC4125"/>
</linearGradient>
<linearGradient id="paint9_linear_50_516" x1="-361.188" y1="1349.02" x2="475.567" y2="1349.02" gradientUnits="userSpaceOnUse">
<stop stop-color="#FFF2CC"/>
<stop offset="1" stop-color="#CC4125"/>
</linearGradient>
<linearGradient id="paint10_linear_50_516" x1="-322.698" y1="1106.02" x2="514.057" y2="1106.02" gradientUnits="userSpaceOnUse">
<stop stop-color="#FFF2CC"/>
<stop offset="1" stop-color="#CC4125"/>
</linearGradient>
<linearGradient id="paint11_linear_50_516" x1="-188.7" y1="899.677" x2="648.055" y2="899.677" gradientUnits="userSpaceOnUse">
<stop stop-color="#FFF2CC"/>
<stop offset="1" stop-color="#CC4125"/>
</linearGradient>
<linearGradient id="paint12_linear_50_516" x1="-301.116" y1="1097.95" x2="502.943" y2="1097.95" gradientUnits="userSpaceOnUse">
<stop stop-color="#FFF2CC"/>
<stop offset="1" stop-color="#CC4125"/>
</linearGradient>
<linearGradient id="paint13_linear_50_516" x1="-172.353" y1="899.679" x2="631.707" y2="899.679" gradientUnits="userSpaceOnUse">
<stop stop-color="#FFF2CC"/>
<stop offset="1" stop-color="#CC4125"/>
</linearGradient>
<linearGradient id="paint14_linear_50_516" x1="25.9238" y1="770.916" x2="829.983" y2="770.916" gradientUnits="userSpaceOnUse">
<stop stop-color="#FFF2CC"/>
<stop offset="1" stop-color="#CC4125"/>
</linearGradient>
<linearGradient id="paint15_linear_50_516" x1="-156.005" y1="899.675" x2="615.358" y2="899.675" gradientUnits="userSpaceOnUse">
<stop stop-color="#FFF2CC"/>
<stop offset="1" stop-color="#CC4125"/>
</linearGradient>
<linearGradient id="paint16_linear_50_516" x1="34.2104" y1="776.15" x2="805.574" y2="776.15" gradientUnits="userSpaceOnUse">
<stop stop-color="#FFF2CC"/>
<stop offset="1" stop-color="#CC4125"/>
</linearGradient>
<linearGradient id="paint17_linear_50_516" x1="258.222" y1="740.67" x2="1029.59" y2="740.67" gradientUnits="userSpaceOnUse">
<stop stop-color="#FFF2CC"/>
<stop offset="1" stop-color="#CC4125"/>
</linearGradient>
<linearGradient id="paint18_linear_50_516" x1="42.4946" y1="781.385" x2="781.162" y2="781.385" gradientUnits="userSpaceOnUse">
<stop stop-color="#FFF2CC"/>
<stop offset="1" stop-color="#CC4125"/>
</linearGradient>
<linearGradient id="paint19_linear_50_516" x1="257.012" y1="747.411" x2="995.68" y2="747.411" gradientUnits="userSpaceOnUse">
<stop stop-color="#FFF2CC"/>
<stop offset="1" stop-color="#CC4125"/>
</linearGradient>
<linearGradient id="paint20_linear_50_516" x1="466.802" y1="803.624" x2="1205.47" y2="803.624" gradientUnits="userSpaceOnUse">
<stop stop-color="#FFF2CC"/>
<stop offset="1" stop-color="#CC4125"/>
</linearGradient>
<linearGradient id="paint21_linear_50_516" x1="255.803" y1="754.149" x2="961.774" y2="754.149" gradientUnits="userSpaceOnUse">
<stop stop-color="#FFF2CC"/>
<stop offset="1" stop-color="#CC4125"/>
</linearGradient>
<linearGradient id="paint22_linear_50_516" x1="456.307" y1="807.876" x2="1162.28" y2="807.876" gradientUnits="userSpaceOnUse">
<stop stop-color="#FFF2CC"/>
<stop offset="1" stop-color="#CC4125"/>
</linearGradient>
<linearGradient id="paint23_linear_50_516" x1="617.624" y1="938.508" x2="1323.6" y2="938.508" gradientUnits="userSpaceOnUse">
<stop stop-color="#FFF2CC"/>
<stop offset="1" stop-color="#CC4125"/>
</linearGradient>
<linearGradient id="paint24_linear_50_516" x1="445.812" y1="812.126" x2="1119.09" y2="812.126" gradientUnits="userSpaceOnUse">
<stop stop-color="#FFF2CC"/>
<stop offset="1" stop-color="#CC4125"/>
</linearGradient>
<linearGradient id="paint25_linear_50_516" x1="599.657" y1="936.71" x2="1272.93" y2="936.71" gradientUnits="userSpaceOnUse">
<stop stop-color="#FFF2CC"/>
<stop offset="1" stop-color="#CC4125"/>
</linearGradient>
<linearGradient id="paint26_linear_50_516" x1="689.531" y1="1113.1" x2="1362.81" y2="1113.1" gradientUnits="userSpaceOnUse">
<stop stop-color="#FFF2CC"/>
<stop offset="1" stop-color="#CC4125"/>
</linearGradient>
<linearGradient id="paint27_linear_50_516" x1="581.693" y1="934.91" x2="1222.27" y2="934.91" gradientUnits="userSpaceOnUse">
<stop stop-color="#FFF2CC"/>
<stop offset="1" stop-color="#CC4125"/>
</linearGradient>
<linearGradient id="paint28_linear_50_516" x1="667.201" y1="1102.73" x2="1307.78" y2="1102.73" gradientUnits="userSpaceOnUse">
<stop stop-color="#FFF2CC"/>
<stop offset="1" stop-color="#CC4125"/>
</linearGradient>
<linearGradient id="paint29_linear_50_516" x1="677.059" y1="1290.82" x2="1317.64" y2="1290.82" gradientUnits="userSpaceOnUse">
<stop stop-color="#FFF2CC"/>
<stop offset="1" stop-color="#CC4125"/>
</linearGradient>
<linearGradient id="paint30_linear_50_516" x1="644.869" y1="1092.37" x2="1252.75" y2="1092.37" gradientUnits="userSpaceOnUse">
<stop stop-color="#FFF2CC"/>
<stop offset="1" stop-color="#CC4125"/>
</linearGradient>
<linearGradient id="paint31_linear_50_516" x1="654.221" y1="1270.86" x2="1262.11" y2="1270.86" gradientUnits="userSpaceOnUse">
<stop stop-color="#FFF2CC"/>
<stop offset="1" stop-color="#CC4125"/>
</linearGradient>
<linearGradient id="paint32_linear_50_516" x1="590.168" y1="1437.73" x2="1198.05" y2="1437.73" gradientUnits="userSpaceOnUse">
<stop stop-color="#FFF2CC"/>
<stop offset="1" stop-color="#CC4125"/>
</linearGradient>
<linearGradient id="paint33_linear_50_516" x1="631.39" y1="1250.9" x2="1206.58" y2="1250.9" gradientUnits="userSpaceOnUse">
<stop stop-color="#FFF2CC"/>
<stop offset="1" stop-color="#CC4125"/>
</linearGradient>
<linearGradient id="paint34_linear_50_516" x1="570.78" y1="1408.78" x2="1145.97" y2="1408.78" gradientUnits="userSpaceOnUse">
<stop stop-color="#FFF2CC"/>
<stop offset="1" stop-color="#CC4125"/>
</linearGradient>
<linearGradient id="paint35_linear_50_516" x1="451.192" y1="1528.37" x2="1026.38" y2="1528.37" gradientUnits="userSpaceOnUse">
<stop stop-color="#FFF2CC"/>
<stop offset="1" stop-color="#CC4125"/>
</linearGradient>
<linearGradient id="paint36_linear_50_516" x1="551.391" y1="1379.85" x2="1093.88" y2="1379.85" gradientUnits="userSpaceOnUse">
<stop stop-color="#FFF2CC"/>
<stop offset="1" stop-color="#CC4125"/>
</linearGradient>
<linearGradient id="paint37_linear_50_516" x1="438.6" y1="1492.63" x2="981.092" y2="1492.63" gradientUnits="userSpaceOnUse">
<stop stop-color="#FFF2CC"/>
<stop offset="1" stop-color="#CC4125"/>
</linearGradient>
<linearGradient id="paint38_linear_50_516" x1="289.685" y1="1549.8" x2="832.177" y2="1549.8" gradientUnits="userSpaceOnUse">
<stop stop-color="#FFF2CC"/>
<stop offset="1" stop-color="#CC4125"/>
</linearGradient>
<linearGradient id="paint39_linear_50_516" x1="426.01" y1="1456.9" x2="935.806" y2="1456.9" gradientUnits="userSpaceOnUse">
<stop stop-color="#FFF2CC"/>
<stop offset="1" stop-color="#CC4125"/>
</linearGradient>
<linearGradient id="paint40_linear_50_516" x1="286.07" y1="1510.62" x2="795.866" y2="1510.62" gradientUnits="userSpaceOnUse">
<stop stop-color="#FFF2CC"/>
<stop offset="1" stop-color="#CC4125"/>
</linearGradient>
<linearGradient id="paint41_linear_50_516" x1="136.379" y1="1502.77" x2="646.176" y2="1502.77" gradientUnits="userSpaceOnUse">
<stop stop-color="#FFF2CC"/>
<stop offset="1" stop-color="#CC4125"/>
</linearGradient>
<linearGradient id="paint42_linear_50_516" x1="282.451" y1="1471.43" x2="759.551" y2="1471.43" gradientUnits="userSpaceOnUse">
<stop stop-color="#FFF2CC"/>
<stop offset="1" stop-color="#CC4125"/>
</linearGradient>
<linearGradient id="paint43_linear_50_516" x1="142.361" y1="1464.09" x2="619.462" y2="1464.09" gradientUnits="userSpaceOnUse">
<stop stop-color="#FFF2CC"/>
<stop offset="1" stop-color="#CC4125"/>
</linearGradient>
<linearGradient id="paint44_linear_50_516" x1="17.3687" y1="1400.4" x2="494.469" y2="1400.4" gradientUnits="userSpaceOnUse">
<stop stop-color="#FFF2CC"/>
<stop offset="1" stop-color="#CC4125"/>
</linearGradient>
<linearGradient id="paint45_linear_50_516" x1="148.344" y1="1425.41" x2="592.749" y2="1425.41" gradientUnits="userSpaceOnUse">
<stop stop-color="#FFF2CC"/>
<stop offset="1" stop-color="#CC4125"/>
</linearGradient>
<linearGradient id="paint46_linear_50_516" x1="31.9185" y1="1366.09" x2="476.323" y2="1366.09" gradientUnits="userSpaceOnUse">
<stop stop-color="#FFF2CC"/>
<stop offset="1" stop-color="#CC4125"/>
</linearGradient>
<linearGradient id="paint47_linear_50_516" x1="-50.3137" y1="1264.54" x2="394.091" y2="1264.54" gradientUnits="userSpaceOnUse">
<stop stop-color="#FFF2CC"/>
<stop offset="1" stop-color="#CC4125"/>
</linearGradient>
<linearGradient id="paint48_linear_50_516" x1="46.468" y1="1331.78" x2="458.177" y2="1331.78" gradientUnits="userSpaceOnUse">
<stop stop-color="#FFF2CC"/>
<stop offset="1" stop-color="#CC4125"/>
</linearGradient>
<linearGradient id="paint49_linear_50_516" x1="-29.7134" y1="1237.7" x2="381.995" y2="1237.7" gradientUnits="userSpaceOnUse">
<stop stop-color="#FFF2CC"/>
<stop offset="1" stop-color="#CC4125"/>
</linearGradient>
<linearGradient id="paint50_linear_50_516" x1="-61.0452" y1="1120.77" x2="350.664" y2="1120.77" gradientUnits="userSpaceOnUse">
<stop stop-color="#FFF2CC"/>
<stop offset="1" stop-color="#CC4125"/>
</linearGradient>
<linearGradient id="paint51_linear_50_516" x1="-9.11523" y1="1210.85" x2="369.898" y2="1210.85" gradientUnits="userSpaceOnUse">
<stop stop-color="#FFF2CC"/>
<stop offset="1" stop-color="#CC4125"/>
</linearGradient>
<linearGradient id="paint52_linear_50_516" x1="-37.9575" y1="1103.21" x2="341.055" y2="1103.21" gradientUnits="userSpaceOnUse">
<stop stop-color="#FFF2CC"/>
<stop offset="1" stop-color="#CC4125"/>
</linearGradient>
<linearGradient id="paint53_linear_50_516" x1="-20.5244" y1="993.139" x2="358.488" y2="993.139" gradientUnits="userSpaceOnUse">
<stop stop-color="#FFF2CC"/>
<stop offset="1" stop-color="#CC4125"/>
</linearGradient>
<linearGradient id="paint54_linear_50_516" x1="-14.8713" y1="1085.65" x2="331.446" y2="1085.65" gradientUnits="userSpaceOnUse">
<stop stop-color="#FFF2CC"/>
<stop offset="1" stop-color="#CC4125"/>
</linearGradient>
<linearGradient id="paint55_linear_50_516" x1="1.05908" y1="985.076" x2="347.376" y2="985.076" gradientUnits="userSpaceOnUse">
<stop stop-color="#FFF2CC"/>
<stop offset="1" stop-color="#CC4125"/>
</linearGradient>
<linearGradient id="paint56_linear_50_516" x1="56.5181" y1="899.677" x2="402.835" y2="899.677" gradientUnits="userSpaceOnUse">
<stop stop-color="#FFF2CC"/>
<stop offset="1" stop-color="#CC4125"/>
</linearGradient>
</defs>
</svg>
